<?xml version="1.0" encoding="UTF-8" standalone="no"?>
<!-- Created with Inkscape (http://www.inkscape.org/) -->

<svg
   xmlns:dc="http://purl.org/dc/elements/1.1/"
   xmlns:cc="http://creativecommons.org/ns#"
   xmlns:rdf="http://www.w3.org/1999/02/22-rdf-syntax-ns#"
   xmlns:svg="http://www.w3.org/2000/svg"
   xmlns="http://www.w3.org/2000/svg"
   xmlns:sodipodi="http://sodipodi.sourceforge.net/DTD/sodipodi-0.dtd"
   xmlns:inkscape="http://www.inkscape.org/namespaces/inkscape"
   width="210mm"
   height="297mm"
   viewBox="0 0 210 297"
   version="1.1"
   id="svg8"
   inkscape:version="0.92.4 (5da689c313, 2019-01-14)"
   sodipodi:docname="Carolina Logo.svg">
  <defs
     id="defs2" />
  <sodipodi:namedview
     id="base"
     pagecolor="#ffffff"
     bordercolor="#666666"
     borderopacity="1.0"
     inkscape:pageopacity="0.0"
     inkscape:pageshadow="2"
     inkscape:zoom="0.35"
     inkscape:cx="388.57143"
     inkscape:cy="537.14286"
     inkscape:document-units="mm"
     inkscape:current-layer="layer1"
     showgrid="false"
     showguides="true"
     inkscape:guide-bbox="true"
     inkscape:window-width="1920"
     inkscape:window-height="1001"
     inkscape:window-x="-9"
     inkscape:window-y="-9"
     inkscape:window-maximized="1">
    <sodipodi:guide
       position="26.458333,91.470241"
       orientation="1,0"
       id="guide73"
       inkscape:locked="false" />
    <sodipodi:guide
       position="187.47619,161.77381"
       orientation="1,0"
       id="guide75"
       inkscape:locked="false" />
  </sodipodi:namedview>
  <metadata
     id="metadata5">
    <rdf:RDF>
      <cc:Work
         rdf:about="">
        <dc:format>image/svg+xml</dc:format>
        <dc:type
           rdf:resource="http://purl.org/dc/dcmitype/StillImage" />
        <dc:title></dc:title>
      </cc:Work>
    </rdf:RDF>
  </metadata>
  <g
     inkscape:label="Layer 1"
     inkscape:groupmode="layer"
     id="layer1">
    <flowRoot
       xml:space="preserve"
       id="flowRoot18"
       style="fill:black;fill-opacity:1;stroke:none;font-family:'28 Days Later';font-style:normal;font-weight:normal;font-size:40px;line-height:1.25;letter-spacing:0px;word-spacing:0px;-inkscape-font-specification:'28 Days Later';font-stretch:normal;font-variant:normal"><flowRegion
         id="flowRegion20"><rect
           id="rect22"
           width="45.714287"
           height="45.714287"
           x="220"
           y="211.09111" /></flowRegion><flowPara
         id="flowPara24"></flowPara></flowRoot>    <text
       xml:space="preserve"
       style="font-style:normal;font-variant:normal;font-weight:bold;font-stretch:normal;font-size:317.23568726px;line-height:1.25;font-family:Raleway;-inkscape-font-specification:'Raleway Bold';letter-spacing:0px;word-spacing:0px;fill:#000000;fill-opacity:1;stroke:none;stroke-width:0.79308921"
       x="17.764311"
       y="210.47153"
       id="text32"
       transform="scale(0.99065358,1.0094346)"><tspan
         sodipodi:role="line"
         id="tspan30"
         x="17.764311"
         y="210.47153"
         style="stroke-width:0.79308921">c</tspan></text>
    <path
       id="text40"
       style="font-style:normal;font-variant:normal;font-weight:500;font-stretch:normal;font-size:220.69581604px;line-height:1.25;font-family:Raleway;-inkscape-font-specification:'Raleway Medium';letter-spacing:0px;word-spacing:0px;fill:#000000;fill-opacity:1;stroke:none;stroke-width:0.55173957"
       d="m 63.750186,59.253008 c -0.04014,0.06135 -0.112271,0.16691 -0.146243,0.22066 -1.107911,1.464053 -2.648998,2.525294 -3.84111,3.909838 -0.04961,0.05762 0.0016,0.15186 0.0026,0.227893 -0.370623,0.433769 -0.706837,0.899076 -1.11156,1.301213 -2.423509,2.408013 -0.497726,0.04394 -2.020549,2.011246 -0.443277,0.533432 -0.846169,1.103109 -1.330153,1.599904 -1.282702,1.316651 -1.987986,1.816708 -3.308323,2.787941 -0.186396,0.241578 -0.552302,0.572264 -0.688848,0.789101 -1.254204,0.462701 -2.614329,0.703421 -3.76256,1.388028 -0.466945,0.278405 0.656682,-0.146714 1.476396,-0.296622 0.363836,-0.384206 0.810723,-0.767506 0.836123,-0.420129 0.05132,0.701813 -1.464543,1.398281 -2.532145,1.804024 0.0057,0.01024 0.01206,0.01937 0.01654,0.03204 0.121973,0.34554 -0.648166,0.3439 -0.957048,0.541052 -0.236649,0.151048 -0.365879,0.430755 -0.585494,0.605647 -1.413047,1.125312 -1.524497,1.174776 -2.557465,1.64176 V 180.15726 c 0.0295,0.0176 0.05961,0.034 0.08888,0.0522 1.633628,1.01289 0.823487,1.05129 1.530141,0.9958 0.399082,0.38644 0.798259,0.77319 1.197343,1.15962 -0.01101,-0.0311 -0.0035,-0.0575 0.03876,-0.0744 0.208973,-0.0837 0.368917,0.25867 0.544153,0.39997 0.338444,0.27289 0.672854,0.55076 0.995804,0.84181 1.09269,0.98478 0.576662,1.14682 1.143085,0.91984 1.145098,0.86459 1.680845,1.55209 2.105813,2.49701 0.607441,0.61828 1.2064,1.22054 1.678451,1.69654 1.423151,0.92668 2.344092,2.07253 2.934705,3.64318 0.0093,0.0246 0.325282,1.25567 0.412377,1.38907 0.03871,0.0593 0.08267,0.11489 0.125574,0.17105 0.417081,0.2605 0.824577,0.53636 1.217496,0.83509 2.468158,1.87646 0.641501,0.64196 1.994712,1.53789 0.662226,0.40117 1.198817,0.95716 1.772502,1.46658 0.52219,0.0896 1.448086,0.30552 1.787486,0.38292 2.507191,-1.1452 2.487885,0.63478 2.735751,2.09134 h 95.98839 v -15.8776 H 65.327867 V 135.66178 H 147.05208 V 120.7769 H 65.327867 V 75.130077 H 159.32316 V 59.253008 Z m -20.509857,0.71727 v 0.814937 c 0.01635,0.01042 0.03183,0.02109 0.04806,0.03152 0.106955,-0.0996 0.184327,-0.166942 0.28267,-0.25735 -0.110884,-0.196543 -0.220964,-0.393869 -0.330729,-0.58911 z m 4.626589,124.457002 c -0.0048,0.0191 0.326088,0.25941 0.871783,0.63872 1.524156,0.80635 -0.855297,-0.70486 -0.871783,-0.63872 z m 13.4953,13.55111 c 0.06459,0.0525 0.12891,0.10583 0.195337,0.15606 0.03633,0.0275 0.171402,-0.0157 0.131259,-0.0372 -0.07765,-0.0416 -0.196561,-0.0808 -0.326596,-0.11886 z"
       inkscape:connector-curvature="0" />
    <text
       xml:space="preserve"
       style="font-style:normal;font-variant:normal;font-weight:300;font-stretch:normal;font-size:16.22777778px;line-height:1.25;font-family:Raleway;-inkscape-font-specification:'Raleway Light';letter-spacing:0px;word-spacing:0px;fill:#000000;fill-opacity:1;stroke:none;stroke-width:0.26458332;"
       x="27.214287"
       y="238.79167"
       id="text44"><tspan
         sodipodi:role="line"
         id="tspan42"
         x="27.214287"
         y="238.79167"
         style="font-size:16.22777778px;stroke-width:0.26458332;">CAROLINA ESCOBAR</tspan></text>
  </g>
</svg>
